<?xml version="1.0" standalone="no"?>
<svg xmlns:xlink="http://www.w3.org/1999/xlink" id="wave" style="transform:rotate(180deg); transition: 0.3s" viewBox="0 0 1440 490" version="1.1" xmlns="http://www.w3.org/2000/svg"><defs><linearGradient id="sw-gradient-0" x1="0" x2="0" y1="1" y2="0"><stop stop-color="rgba(255, 255, 255, 1)" offset="0%"/><stop stop-color="rgba(255, 255, 255, 1)" offset="100%"/></linearGradient></defs><path style="transform:translate(0, 0px); opacity:1" fill="url(#sw-gradient-0)" d="M0,98L60,122.5C120,147,240,196,360,236.8C480,278,600,310,720,294C840,278,960,212,1080,163.3C1200,114,1320,82,1440,122.5C1560,163,1680,278,1800,326.7C1920,376,2040,359,2160,310.3C2280,261,2400,180,2520,122.5C2640,65,2760,33,2880,49C3000,65,3120,131,3240,187.8C3360,245,3480,294,3600,261.3C3720,229,3840,114,3960,130.7C4080,147,4200,294,4320,302.2C4440,310,4560,180,4680,114.3C4800,49,4920,49,5040,65.3C5160,82,5280,114,5400,122.5C5520,131,5640,114,5760,147C5880,180,6000,261,6120,245C6240,229,6360,114,6480,65.3C6600,16,6720,33,6840,57.2C6960,82,7080,114,7200,163.3C7320,212,7440,278,7560,269.5C7680,261,7800,180,7920,138.8C8040,98,8160,98,8280,89.8C8400,82,8520,65,8580,57.2L8640,49L8640,490L8580,490C8520,490,8400,490,8280,490C8160,490,8040,490,7920,490C7800,490,7680,490,7560,490C7440,490,7320,490,7200,490C7080,490,6960,490,6840,490C6720,490,6600,490,6480,490C6360,490,6240,490,6120,490C6000,490,5880,490,5760,490C5640,490,5520,490,5400,490C5280,490,5160,490,5040,490C4920,490,4800,490,4680,490C4560,490,4440,490,4320,490C4200,490,4080,490,3960,490C3840,490,3720,490,3600,490C3480,490,3360,490,3240,490C3120,490,3000,490,2880,490C2760,490,2640,490,2520,490C2400,490,2280,490,2160,490C2040,490,1920,490,1800,490C1680,490,1560,490,1440,490C1320,490,1200,490,1080,490C960,490,840,490,720,490C600,490,480,490,360,490C240,490,120,490,60,490L0,490Z"/></svg>